<svg width="104" height="17" viewBox="0 0 104 17" fill="none" xmlns="http://www.w3.org/2000/svg">
<path d="M6.00602 16.132C4.83268 16.132 3.92335 15.8167 3.27802 15.186C2.63268 14.5553 2.31002 13.6533 2.31002 12.48V1.78799H4.42202V12.392C4.42202 13.0227 4.57602 13.5067 4.88402 13.844C5.20668 14.1813 5.66135 14.35 6.24802 14.35C6.90802 14.35 7.45802 14.1667 7.89802 13.8L8.55802 15.318C8.23535 15.5967 7.84668 15.802 7.39202 15.934C6.95202 16.066 6.49002 16.132 6.00602 16.132ZM0.330017 6.07799V4.33999H7.76602V6.07799H0.330017Z" fill="white"/>
<path d="M31.6056 4.22999C32.5443 4.22999 33.3729 4.41333 34.0916 4.77999C34.8103 5.14666 35.3676 5.70399 35.7636 6.45199C36.1743 7.19999 36.3796 8.146 36.3796 9.29V16H34.2676V9.53199C34.2676 8.40266 34.0036 7.55199 33.4756 6.97999C32.9476 6.40799 32.2069 6.12199 31.2536 6.12199C30.5496 6.12199 29.9336 6.26866 29.4056 6.56199C28.8776 6.85533 28.4669 7.28799 28.1736 7.85999C27.8949 8.43199 27.7556 9.14333 27.7556 9.99399V16H25.6436V9.53199C25.6436 8.40266 25.3796 7.55199 24.8516 6.97999C24.3383 6.40799 23.5976 6.12199 22.6296 6.12199C21.9403 6.12199 21.3316 6.26866 20.8036 6.56199C20.2756 6.85533 19.8649 7.28799 19.5716 7.85999C19.2783 8.43199 19.1316 9.14333 19.1316 9.99399V16H17.0196V4.33999H19.0436V7.44199L18.7136 6.64999C19.0803 5.88733 19.6449 5.29333 20.4076 4.86799C21.1703 4.44266 22.0576 4.22999 23.0696 4.22999C24.1843 4.22999 25.1449 4.50866 25.9516 5.066C26.7583 5.60866 27.2863 6.43733 27.5356 7.552L26.6776 7.2C27.0296 6.30533 27.6456 5.58666 28.5256 5.04399C29.4056 4.50133 30.4323 4.22999 31.6056 4.22999Z" fill="white"/>
<path d="M40.2657 16V4.33999H42.2897V7.50799L42.0917 6.71599C42.4144 5.90933 42.957 5.29333 43.7197 4.86799C44.4824 4.44266 45.421 4.22999 46.5357 4.22999V6.27599C46.4477 6.26133 46.3597 6.25399 46.2717 6.25399C46.1984 6.25399 46.125 6.25399 46.0517 6.25399C44.9224 6.25399 44.0277 6.59133 43.3677 7.266C42.7077 7.94066 42.3777 8.916 42.3777 10.192V16H40.2657Z" fill="white"/>
<path d="M49.5803 16.132C49.1696 16.132 48.8176 15.9927 48.5243 15.714C48.2309 15.4207 48.0843 15.054 48.0843 14.614C48.0843 14.174 48.2309 13.8147 48.5243 13.536C48.8176 13.2573 49.1696 13.118 49.5803 13.118C49.9763 13.118 50.3136 13.2573 50.5923 13.536C50.8856 13.8147 51.0323 14.174 51.0323 14.614C51.0323 15.054 50.8856 15.4207 50.5923 15.714C50.3136 15.9927 49.9763 16.132 49.5803 16.132Z" fill="white"/>
<path d="M11.3654 16V4.79788H13.4285V16H11.3654ZM12.3969 2.64201C11.9958 2.64201 11.6591 2.51519 11.3869 2.26156C11.129 2.00793 11 1.69793 11 1.33157C11 0.951124 11.129 0.634081 11.3869 0.380448C11.6591 0.126816 11.9958 0 12.3969 0C12.7981 0 13.1276 0.126816 13.3855 0.380448C13.6577 0.61999 17 0.965214 17 1.33157C17 1.71202 13.6649 1.99384 13.407 2.26156C13.1491 2.51519 12.8124 2.64201 12.3969 2.64201Z" fill="#9097C0"/>
<path d="M66.096 16.048C65.544 16.048 65.12 15.896 64.824 15.592C64.536 15.288 64.392 14.872 64.392 14.344V8.36801H64.992V14.284C64.992 14.684 65.092 14.992 65.292 15.208C65.492 15.424 65.78 15.532 66.156 15.532C66.548 15.532 66.872 15.416 67.128 15.184L67.38 15.604C67.22 15.756 67.024 15.868 66.792 15.94C66.568 16.012 66.336 16.048 66.096 16.048ZM63.24 10.252V9.73601H66.984V10.252H63.24Z" fill="white"/>
<path d="M69.0533 16V9.73601H69.6293V11.452L69.5693 11.26C69.7453 10.756 70.0413 10.368 70.4573 10.096C70.8733 9.82401 71.3933 9.68801 72.0173 9.68801V10.276C71.9933 10.276 71.9693 10.276 71.9453 10.276C71.9213 10.268 71.8973 10.264 71.8733 10.264C71.1773 10.264 70.6333 10.484 70.2413 10.924C69.8493 11.356 69.6533 11.96 69.6533 12.736V16H69.0533Z" fill="white"/>
<path d="M77.1497 16V14.572L77.1257 14.356V12.004C77.1257 11.42 76.9657 10.976 76.6457 10.672C76.3337 10.368 75.8737 10.216 75.2657 10.216C74.8337 10.216 74.4297 10.292 74.0537 10.444C73.6857 10.588 73.3697 10.776 73.1057 11.008L72.8057 10.576C73.1177 10.296 73.4937 10.08 73.9337 9.92801C74.3737 9.76801 74.8337 9.68801 75.3137 9.68801C76.0897 9.68801 76.6857 9.88401 77.1017 10.276C77.5177 10.668 77.7257 11.252 77.7257 12.028V16H77.1497ZM74.8937 16.048C74.4297 16.048 74.0257 15.976 73.6817 15.832C73.3457 15.68 73.0857 15.468 72.9017 15.196C72.7257 14.924 72.6377 14.612 72.6377 14.26C72.6377 13.94 72.7097 13.652 72.8537 13.396C73.0057 13.132 73.2537 12.92 73.5977 12.76C73.9417 12.592 74.4017 12.508 74.9777 12.508H77.2817V12.976H74.9897C74.3417 12.976 73.8857 13.096 73.6217 13.336C73.3657 13.576 73.2377 13.876 73.2377 14.236C73.2377 14.636 73.3897 14.956 73.6937 15.196C73.9977 15.436 74.4257 15.556 74.9777 15.556C75.5057 15.556 75.9497 15.436 76.3097 15.196C76.6777 14.956 76.9497 14.608 77.1257 14.152L77.2937 14.56C77.1257 15.016 76.8377 15.38 76.4297 15.652C76.0297 15.916 75.5177 16.048 74.8937 16.048Z" fill="white"/>
<path d="M82.6818 16.048C82.0738 16.048 81.5298 15.912 81.0498 15.64C80.5778 15.368 80.2018 14.992 79.9218 14.512C79.6498 14.032 79.5138 13.484 79.5138 12.868C79.5138 12.244 79.6498 11.692 79.9218 11.212C80.2018 10.732 80.5778 10.36 81.0498 10.096C81.5298 9.82401 82.0738 9.68801 82.6818 9.68801C83.1858 9.68801 83.6418 9.78401 84.0498 9.97601C84.4658 10.168 84.8018 10.456 85.0578 10.84L84.6138 11.164C84.3898 10.844 84.1098 10.608 83.7738 10.456C83.4378 10.304 83.0738 10.228 82.6818 10.228C82.1938 10.228 81.7538 10.34 81.3618 10.564C80.9778 10.78 80.6738 11.088 80.4498 11.488C80.2338 11.88 80.1258 12.34 80.1258 12.868C80.1258 13.396 80.2338 13.86 80.4498 14.26C80.6738 14.652 80.9778 14.96 81.3618 15.184C81.7538 15.4 82.1938 15.508 82.6818 15.508C83.0738 15.508 83.4378 15.432 83.7738 15.28C84.1098 15.128 84.3898 14.892 84.6138 14.572L85.0578 14.896C84.8018 15.28 84.4658 15.568 84.0498 15.76C83.6418 15.952 83.1858 16.048 82.6818 16.048Z" fill="white"/>
<path d="M87.2046 14.272L87.2166 13.516L91.3566 9.73601H92.1246L89.3766 12.316L89.0166 12.616L87.2046 14.272ZM86.7486 16V7.09601H87.3486V16H86.7486ZM91.6446 16L88.9086 12.568L89.3166 12.124L92.3886 16H91.6446Z" fill="white"/>
<path d="M96.1012 16.048C95.4692 16.048 94.9092 15.912 94.4212 15.64C93.9412 15.368 93.5612 14.992 93.2812 14.512C93.0092 14.032 92.8732 13.484 92.8732 12.868C92.8732 12.244 93.0012 11.696 93.2572 11.224C93.5212 10.744 93.8812 10.368 94.3372 10.096C94.7932 9.82401 95.3052 9.68801 95.8732 9.68801C96.4412 9.68801 96.9492 9.82001 97.3972 10.084C97.8532 10.348 98.2092 10.72 98.4652 11.2C98.7292 11.672 98.8612 12.22 98.8612 12.844C98.8612 12.868 98.8572 12.896 98.8492 12.928C98.8492 12.952 98.8492 12.98 98.8492 13.012H93.3172V12.544H98.5252L98.2852 12.772C98.2932 12.284 98.1892 11.848 97.9732 11.464C97.7652 11.072 97.4812 10.768 97.1212 10.552C96.7612 10.328 96.3452 10.216 95.8732 10.216C95.4092 10.216 94.9932 10.328 94.6252 10.552C94.2652 10.768 93.9812 11.072 93.7732 11.464C93.5652 11.848 93.4612 12.288 93.4612 12.784V12.892C93.4612 13.404 93.5732 13.86 93.7972 14.26C94.0292 14.652 94.3452 14.96 94.7452 15.184C95.1452 15.4 95.6012 15.508 96.1132 15.508C96.5132 15.508 96.8852 15.436 97.2292 15.292C97.5812 15.148 97.8772 14.928 98.1172 14.632L98.4652 15.028C98.1932 15.364 97.8492 15.62 97.4332 15.796C97.0252 15.964 96.5812 16.048 96.1012 16.048Z" fill="white"/>
<path d="M100.717 16V9.73601H101.293V11.452L101.233 11.26C101.409 10.756 101.705 10.368 102.121 10.096C102.537 9.82401 103.057 9.68801 103.681 9.68801V10.276C103.657 10.276 103.633 10.276 103.609 10.276C103.585 10.268 103.561 10.264 103.537 10.264C102.841 10.264 102.297 10.484 101.905 10.924C101.513 11.356 101.317 11.96 101.317 12.736V16H100.717Z" fill="white"/>
</svg>
